<?xml version="1.0" encoding="utf-8"?>
<!-- Generator: Adobe Illustrator 23.0.1, SVG Export Plug-In . SVG Version: 6.00 Build 0)  -->
<svg version="1.1" id="Laag_1" xmlns="http://www.w3.org/2000/svg" xmlns:xlink="http://www.w3.org/1999/xlink" x="0px" y="0px"
	 viewBox="0 0 58.5 55.5" style="enable-background:new 0 0 58.5 55.5;" xml:space="preserve">
<style type="text/css">
	.st0{fill:#A3398D;}
</style>
<g>
	<path class="st0" d="M55.1,48.6H3.4C1.5,48.6,0,50.1,0,52c0,1.9,1.5,3.4,3.4,3.4h51.7c1.9,0,3.4-1.5,3.4-3.4
		C58.5,50.1,57,48.6,55.1,48.6L55.1,48.6z M26.2,39.6c0.6,0.8,1.6,1.2,2.6,1.2h0.1c1,0,1.9-0.4,2.5-1.1L46,23.2
		c0.9-1,1.1-2.5,0.6-3.7c-0.6-1.2-1.8-2-3.2-2l-4.1,0.1V3.4c0-1.9-1.5-3.4-3.4-3.4H22.7c-0.9,0-1.8,0.4-2.4,1c-0.6,0.6-1,1.5-1,2.4
		l0,14.2l-4.1-0.1c-1.3,0-2.6,0.7-3.2,1.9c-0.6,1.2-0.4,2.7,0.5,3.7L26.2,39.6z M26.2,39.6"/>
</g>
</svg>
