<?xml version="1.0" encoding="utf-8"?>
<!-- Generator: Adobe Illustrator 23.0.1, SVG Export Plug-In . SVG Version: 6.00 Build 0)  -->
<svg version="1.1" id="Laag_1" xmlns="http://www.w3.org/2000/svg" xmlns:xlink="http://www.w3.org/1999/xlink" x="0px" y="0px"
	 viewBox="0 0 69.5 63.6" style="enable-background:new 0 0 69.5 63.6;" xml:space="preserve">
<style type="text/css">
	.st0{fill:#A3398D;}
</style>
<g>
	<path class="st0" d="M61.3,51.8H9.6c-1.9,0-3.4,1.5-3.4,3.4c0,1.9,1.5,3.4,3.4,3.4h51.7c1.9,0,3.4-1.5,3.4-3.4
		C64.7,53.3,63.2,51.8,61.3,51.8L61.3,51.8z M32.4,42.8c0.6,0.8,1.6,1.2,2.6,1.2H35c1,0,1.9-0.4,2.5-1.1l14.7-16.5
		c0.9-1,1.1-2.5,0.6-3.7c-0.6-1.2-1.8-2-3.2-2l-4.1,0.1V6.6c0-1.9-1.5-3.4-3.4-3.4H28.8c-0.9,0-1.8,0.4-2.4,1c-0.6,0.6-1,1.5-1,2.4
		l0,14.2l-4.1-0.1c-1.3,0-2.6,0.7-3.2,1.9c-0.6,1.2-0.4,2.7,0.5,3.7L32.4,42.8z M32.4,42.8"/>
</g>
</svg>
