<?xml version="1.0" encoding="utf-8"?>
<!-- Generator: Adobe Illustrator 23.0.1, SVG Export Plug-In . SVG Version: 6.00 Build 0)  -->
<svg version="1.1" id="Laag_1" xmlns="http://www.w3.org/2000/svg" xmlns:xlink="http://www.w3.org/1999/xlink" x="0px" y="0px"
	 viewBox="0 0 45.4 45.4" style="enable-background:new 0 0 45.4 45.4;" xml:space="preserve">
<style type="text/css">
	.st0{fill-rule:evenodd;clip-rule:evenodd;fill:#991782;}
	.st1{fill-rule:evenodd;clip-rule:evenodd;fill:#FFFFFF;}
</style>
<g>
	<g>
		<g>
			<path class="st0" d="M44.3,22.7c0,11.8-9.6,21.4-21.4,21.4S1.5,34.5,1.5,22.7c0-11.9,9.6-21.4,21.4-21.4
				C34.7,1.3,44.3,10.8,44.3,22.7"/>
		</g>
		<path class="st1" d="M36.3,30.1h0.4v1c0.3-0.6,0.9-1.1,1.6-1.1v0.4h0c-0.8,0-1.6,0.6-1.6,1.8v1.5h-0.4V30.1L36.3,30.1z M34.8,29.2
			h0.4v-0.5h-0.4V29.2z M34.8,33.7h0.4v-3.6h-0.4V33.7z M30.6,32.7L30.6,32.7c0-0.8,0.6-1.2,1.6-1.2c0.5,0,0.9,0.1,1.2,0.2v-0.2
			c0-0.7-0.4-1.1-1.2-1.1c-0.4,0-0.8,0.1-1.1,0.3L31,30.4c0.4-0.2,0.8-0.3,1.3-0.3c0.5,0,0.9,0.1,1.1,0.4c0.2,0.2,0.4,0.6,0.4,1v2.2
			h-0.4v-0.6c-0.2,0.4-0.7,0.7-1.4,0.7C31.3,33.8,30.6,33.4,30.6,32.7L30.6,32.7z M33.4,32.4v-0.4c-0.3-0.1-0.7-0.2-1.2-0.2
			c-0.7,0-1.2,0.4-1.2,0.8l0,0c0,0.5,0.5,0.8,1.1,0.8C32.8,33.5,33.4,33,33.4,32.4L33.4,32.4z"/>
		<path class="st1" d="M11.4,23.4c0,0-0.2,0-0.3,0c-0.1,0-0.2,0-0.2-0.1l0,0l0,0l0,0l0,0c0-0.1,0.2-0.1,0.2-0.1c0.1,0,0.3,0,0.3,0
			l5.1-0.2l1.1-3.7c0,0,0,0,0,0c0,0,0-0.1,0-0.2c0-0.3-0.2-0.5-0.5-0.5h-2.5c-0.2,0-0.4,0.2-0.5,0.4v0l-0.9,3.4l-1-3.4l0-0.1
			c-0.1-0.2-0.3-0.3-0.5-0.3H9.3c-0.2,0-0.4,0.2-0.5,0.4l-1,3.4L7,18.8v0c-0.1-0.2-0.3-0.4-0.5-0.4H3.9c-0.3,0-0.5,0.2-0.5,0.5
			c0,0,0,0.1,0,0.2l2.5,8.3v0c0.1,0.2,0.3,0.4,0.5,0.4h2.5c0.2,0,0.4-0.2,0.5-0.4l1.2-3.6l1.1,3.6l0,0v0c0,0,0,0,0,0
			c0.1,0.2,0.3,0.3,0.5,0.3h2.5c0.2,0,0.4-0.2,0.5-0.4l0-0.1l0,0l1.2-3.8L11.4,23.4"/>
		<path class="st1" d="M21.3,22.6c0.2-0.6,0.5-1.1,1.1-1.2c0-0.3,0.2-1.8,0.2-1.9c0-0.1,0.2-0.1,0.2-0.1l0,0l0,0c0,0,0.1,0,0.2,0.1
			s0.2,1.6,0.2,1.9c0.5,0.2,0.9,0.6,1.1,1.2l3.8,0.2c0,0,0,0,0,0c-0.2-2.5-2.3-4.6-5.2-4.6s-5.1,2.1-5.3,4.6L21.3,22.6"/>
		<path class="st1" d="M24.1,23.8c-0.2,0.6-0.8,1-1.4,1c-0.6,0-1.1-0.4-1.4-1l-3.9-0.2c0.3,2.4,2.3,4.4,5.2,4.4s5-1.9,5.2-4.4
			L24.1,23.8"/>
		<path class="st1" d="M41.7,18.4h-2.5c-0.2,0-0.4,0.2-0.5,0.4v0l-0.9,3.4l-1-3.4l0-0.1c-0.1-0.2-0.3-0.3-0.5-0.3h-2.3
			c-0.2,0-0.4,0.2-0.5,0.4l-1,3.4l-0.9-3.4v0c-0.1-0.2-0.3-0.4-0.5-0.4h-2.6c-0.3,0-0.5,0.2-0.5,0.5c0,0,0,0.1,0,0.2l1.1,3.7
			l5.1,0.2c0,0,0.2,0,0.3,0c0.1,0,0.2,0,0.2,0.1l0,0l0,0l0,0l0,0c0,0.1-0.2,0.1-0.2,0.1c-0.1,0-0.3,0-0.3,0l-4.9,0.2l1.2,3.9v0
			c0.1,0.2,0.3,0.4,0.5,0.4h2.5c0.2,0,0.4-0.2,0.5-0.4l1.2-3.6l1.1,3.6l0,0v0c0,0,0,0,0,0c0.1,0.2,0.3,0.3,0.5,0.3h2.5
			c0.2,0,0.4-0.2,0.5-0.4l0-0.1l0,0l2.5-8.3c0,0,0,0,0,0c0,0,0-0.1,0-0.2C42.2,18.6,42,18.4,41.7,18.4"/>
	</g>
</g>
</svg>
