<?xml version="1.0" encoding="utf-8"?>
<!-- Generator: Adobe Illustrator 23.0.1, SVG Export Plug-In . SVG Version: 6.00 Build 0)  -->
<svg version="1.1" id="Laag_1" xmlns="http://www.w3.org/2000/svg" xmlns:xlink="http://www.w3.org/1999/xlink" x="0px" y="0px"
	 viewBox="0 0 24 24" style="enable-background:new 0 0 24 24;" xml:space="preserve">
<style type="text/css">
	.st0{fill:#DBDBDB;}
</style>
<g>
	<path class="st0" d="M9,0C8.7,0,8.5,0.1,8.3,0.3l-8,8C0.1,8.5,0,8.7,0,9s0.1,0.5,0.3,0.7l1.4,1.4c0.2,0.2,0.5,0.3,0.7,0.3
		c0.3,0,0.5-0.1,0.7-0.3l0,0l2-2C5.4,8.8,6,9,6,9.5V23c0,0.5,0.5,1,1,1h2c0.5,0,1-0.5,1-1V1c0-0.3-0.1-0.5-0.3-0.7S9.3,0,9,0z"/>
	<path class="st0" d="M23.7,14.3l-1.4-1.4c-0.2-0.2-0.5-0.3-0.7-0.3c-0.3,0-0.5,0.1-0.7,0.3l-2,2C18.6,15.2,18,15,18,14.5V1
		c0-0.5-0.5-1-1-1h-2c-0.5,0-1,0.5-1,1v22c0,0.3,0.1,0.5,0.3,0.7S14.8,24,15,24c0.3,0,0.5-0.1,0.7-0.3l8-8c0.2-0.2,0.3-0.4,0.3-0.7
		S23.9,14.5,23.7,14.3z"/>
</g>
</svg>
