<?xml version="1.0" encoding="utf-8"?>
<!-- Generator: Adobe Illustrator 23.0.1, SVG Export Plug-In . SVG Version: 6.00 Build 0)  -->
<svg version="1.1" id="Laag_1" xmlns="http://www.w3.org/2000/svg" xmlns:xlink="http://www.w3.org/1999/xlink" x="0px" y="0px"
	 viewBox="0 0 329.6 368.6" style="enable-background:new 0 0 329.6 368.6;" xml:space="preserve">
<style type="text/css">
	.st0{fill:#A2388D;}
</style>
<g>
	<path class="st0" d="M155.3,368.6c-5.8-0.7-11.7-1.3-17.5-2c-21.7-2.8-42.3-9.4-61.7-19.6c-30.8-16.3-55.3-39.4-73.9-68.8
		c-2.7-4.3-3-8.1-0.7-12.8c16.9-33.9,43.6-55.6,80.3-64.9c2.9-0.7,5.9-1.1,8.8-1.8c5.8-1.2,10.8,0.4,15.5,3.8
		c19,13.4,40.2,19.4,63.4,18.4c17.6-0.8,34.5-5.1,48.7-15.4c10.6-7.8,20.8-7.4,32.2-4.3c32.2,9,56.5,28.1,73.5,56.7
		c7.3,12.2,7.5,12.4-0.3,24.1c-19.2,28.9-44,51.5-75.2,66.9c-23,11.3-47.2,17.8-72.8,19.2c-0.8,0-1.6,0.3-2.4,0.5
		C167.3,368.6,161.3,368.6,155.3,368.6z"/>
	<path class="st0" d="M164.6,191.4c-52,0.3-95.3-42.9-95.7-95.5C68.6,43.7,112,0.1,164.6,0c52.3-0.1,95.7,43,95.8,95.3
		C260.5,148.1,217.6,191.1,164.6,191.4z"/>
</g>
</svg>
