<?xml version="1.0" encoding="utf-8"?>
<!-- Generator: Adobe Illustrator 23.0.1, SVG Export Plug-In . SVG Version: 6.00 Build 0)  -->
<svg version="1.1" id="Laag_1" xmlns="http://www.w3.org/2000/svg" xmlns:xlink="http://www.w3.org/1999/xlink" x="0px" y="0px"
	 viewBox="0 0 110 110" style="enable-background:new 0 0 110 110;" xml:space="preserve">
<style type="text/css">
	.st0{filter:url(#Adobe_OpacityMaskFilter);}
	.st1{fill-rule:evenodd;clip-rule:evenodd;fill:#FFFFFF;}
	.st2{mask:url(#mask-2_1_);fill-rule:evenodd;clip-rule:evenodd;fill:#991782;}
</style>
<g>
	<g>
		<g>
			<defs>
				<filter id="Adobe_OpacityMaskFilter" filterUnits="userSpaceOnUse" x="0" y="0.2" width="109.8" height="109.8">
					<feColorMatrix  type="matrix" values="1 0 0 0 0  0 1 0 0 0  0 0 1 0 0  0 0 0 1 0"/>
				</filter>
			</defs>
			<mask maskUnits="userSpaceOnUse" x="0" y="0.2" width="109.8" height="109.8" id="mask-2_1_">
				<g class="st0">
					<polygon id="path-1_1_" class="st1" points="0,110 109.8,110 109.8,0.2 0,0.2 					"/>
				</g>
			</mask>
			<path class="st2" d="M109.8,55.1c0,30.3-24.6,54.9-54.9,54.9C24.6,110,0,85.4,0,55.1C0,24.7,24.6,0.2,54.9,0.2
				C85.3,0.2,109.8,24.7,109.8,55.1"/>
		</g>
		<path class="st1" d="M89.4,74.1h0.9v2.6c0.7-1.6,2.3-2.8,4.1-2.8v1h-0.1c-2.1,0-4,1.6-4,4.6v3.8h-0.9V74.1L89.4,74.1z M85.4,71.7
			h1.1v-1.2h-1.1V71.7z M85.5,83.3h0.9v-9.2h-0.9V83.3z M74.8,80.7L74.8,80.7c0-2,1.6-3,4-3c1.3,0,2.2,0.2,3.1,0.4v-0.4
			c0-1.9-1.1-2.8-3-2.8c-1.1,0-2,0.3-2.9,0.7l-0.3-0.8c1-0.5,2-0.8,3.3-0.8c1.2,0,2.2,0.3,2.9,1c0.6,0.6,0.9,1.5,0.9,2.6v5.7h-0.9
			v-1.5c-0.6,0.9-1.8,1.7-3.5,1.7C76.6,83.6,74.8,82.6,74.8,80.7L74.8,80.7z M81.9,79.9v-1.1c-0.8-0.2-1.8-0.4-3.1-0.4
			c-1.9,0-3,0.9-3,2.1v0c0,1.3,1.3,2.1,2.7,2.1C80.3,82.7,81.9,81.6,81.9,79.9L81.9,79.9z"/>
		<path class="st1" d="M25.5,56.8c0,0-0.6-0.1-0.8-0.1c-0.2,0-0.5-0.1-0.5-0.3c0,0,0,0,0,0v0v0c0,0,0,0,0,0c0-0.2,0.4-0.3,0.5-0.3
			c0.2,0,0.8-0.1,0.8-0.1l13.1-0.6l2.9-9.6c0,0,0,0,0-0.1c0-0.1,0-0.2,0-0.4c0-0.7-0.6-1.3-1.3-1.3h-6.5c-0.6,0-1.1,0.4-1.3,0.9
			c0,0,0,0.1,0,0.1l-2.3,8.7l-2.6-8.7l-0.1-0.3c-0.2-0.5-0.7-0.8-1.2-0.8h-6c-0.6,0-1.1,0.4-1.3,0.9l-2.6,8.8l-2.2-8.6
			c0,0,0-0.1,0-0.1c-0.2-0.5-0.7-0.9-1.3-0.9H6.2c-0.7,0-1.3,0.6-1.3,1.3c0,0.1,0,0.3,0.1,0.4l6.4,21.4l0,0.1
			c0.2,0.5,0.7,0.9,1.3,0.9h6.3c0.6,0,1.1-0.4,1.3-0.9l3-9.3l2.9,9.3c0,0,0,0,0,0l0,0.1c0,0,0,0,0,0.1c0.2,0.5,0.7,0.8,1.2,0.8h6.4
			c0.6,0,1.1-0.4,1.3-0.9l0.1-0.2c0,0,0,0,0,0l3-9.8L25.5,56.8"/>
		<path class="st1" d="M50.9,54.9c0.4-1.5,1.4-2.7,2.8-3c0.1-0.7,0.4-4.6,0.5-4.9c0.1-0.3,0.4-0.3,0.4-0.3h0h0c0,0,0.3,0,0.4,0.3
			c0.1,0.3,0.5,4.2,0.5,4.9c1.4,0.4,2.4,1.5,2.8,3l9.7,0.4c0-0.1,0-0.1,0-0.1c-0.4-6.4-5.8-11.7-13.4-11.7
			c-7.6,0-13.1,5.4-13.5,11.8L50.9,54.9"/>
		<path class="st1" d="M58.1,57.8c-0.6,1.5-2,2.5-3.5,2.5c-1.6,0-2.9-1-3.5-2.5l-9.9-0.4c0.7,6.2,6,11.2,13.4,11.2
			c7.4,0,12.7-5,13.4-11.2L58.1,57.8"/>
		<path class="st1" d="M103.1,44.1h-6.5c-0.6,0-1.1,0.4-1.3,0.9c0,0,0,0.1,0,0.1L93,53.8l-2.6-8.7l-0.1-0.3
			c-0.2-0.5-0.7-0.8-1.2-0.8h-6c-0.6,0-1.1,0.4-1.3,0.9l-2.6,8.8L77,45.1c0,0,0-0.1,0-0.1c-0.2-0.5-0.7-0.9-1.3-0.9H69
			c-0.7,0-1.3,0.6-1.3,1.3c0,0.1,0,0.3,0.1,0.4l2.9,9.6L83.7,56c0,0,0.6,0.1,0.8,0.1c0.2,0,0.5,0.1,0.5,0.3c0,0,0,0,0,0v0v0
			c0,0,0,0,0,0c0,0.2-0.4,0.3-0.5,0.3c-0.2,0-0.8,0.1-0.8,0.1l-12.5,0.5l3,9.9l0,0.1c0.2,0.5,0.7,0.9,1.3,0.9h6.3
			c0.6,0,1.1-0.4,1.3-0.9l3-9.3l2.9,9.3c0,0,0,0,0,0l0,0.1c0,0,0,0,0,0.1c0.2,0.5,0.7,0.8,1.2,0.8h6.4c0.6,0,1.1-0.4,1.3-0.9
			l0.1-0.2c0,0,0,0,0,0l6.5-21.3c0,0,0,0,0-0.1c0-0.1,0.1-0.2,0.1-0.4C104.5,44.7,103.9,44.1,103.1,44.1"/>
	</g>
</g>
</svg>
